<?xml version="1.0" encoding="UTF-8" standalone="no"?>
<!-- Created with Inkscape (http://www.inkscape.org/) -->

<svg
   width="292"
   height="48"
   viewBox="0 0 77.258333 12.7"
   version="1.1"
   id="svg5"
   xmlns="http://www.w3.org/2000/svg"
   xmlns:svg="http://www.w3.org/2000/svg">
  <defs
     id="defs2" />
  <g
     id="layer1">
    <g
       aria-label="Renandev"
       id="text5368"
       style="font-size:10.5833px;line-height:1.25;fill:#ffffff;stroke-width:0.264583"
       transform="matrix(1.5990485,0,0,1.5990485,51.130796,-221.53345)">
      <path
         d="m -31.572328,146.37476 q -0.15875,0 -0.264583,-0.0953 -0.09525,-0.0952 -0.09525,-0.22225 v -6.77331 q 0,-0.127 0.09525,-0.22225 0.09525,-0.0952 0.22225,-0.0952 h 2.857491 q 0.603248,0 1.079496,0.26458 0.476249,0.254 0.740831,0.70908 0.275166,0.45508 0.275166,1.02658 0,0.46566 -0.169333,0.85725 -0.169333,0.39158 -0.476248,0.66674 -0.306916,0.26459 -0.687915,0.39159 l -0.370415,-0.11642 q 0.391582,0.0317 0.730247,0.254 0.338666,0.21167 0.539749,0.59266 0.211666,0.37042 0.222249,0.89959 0.01058,0.45508 0.04233,0.70908 0.04233,0.254 0.116416,0.38099 0.07408,0.127 0.1905,0.20109 0.105833,0.0635 0.137583,0.17991 0.04233,0.11642 -0.02117,0.22225 -0.04233,0.0847 -0.127,0.127 -0.07408,0.0317 -0.158749,0.0317 -0.08467,0 -0.169333,-0.0423 -0.148166,-0.0847 -0.306916,-0.26458 -0.148166,-0.17992 -0.253999,-0.52917 -0.09525,-0.34925 -0.09525,-0.97366 0,-0.41275 -0.137583,-0.67733 -0.127,-0.26459 -0.338666,-0.40217 -0.201083,-0.14816 -0.455082,-0.20108 -0.243416,-0.0635 -0.465665,-0.0635 h -2.465909 l 0.116417,-0.14817 v 2.99508 q 0,0.127 -0.08467,0.22225 -0.08467,0.0953 -0.222249,0.0953 z m 0.190499,-3.74649 h 2.656408 q 0.359833,-0.0317 0.677332,-0.23283 0.317499,-0.21167 0.507998,-0.5715 0.201083,-0.35984 0.201083,-0.83608 0,-0.60325 -0.412749,-0.99483 -0.402165,-0.40217 -1.05833,-0.40217 h -2.529409 l 0.07408,-0.14817 v 3.33374 z"
         style="font-family:Quicksand;-inkscape-font-specification:Quicksand;fill:#ffffff"
         id="path7107" />
      <path
         d="m -22.608304,146.48059 q -0.814914,0 -1.439329,-0.34925 -0.624414,-0.34925 -0.973663,-0.97366 -0.349249,-0.62442 -0.349249,-1.4605 0,-0.89958 0.349249,-1.53458 0.359832,-0.635 0.920747,-0.97366 0.571498,-0.34925 1.206496,-0.34925 0.465665,0 0.89958,0.16933 0.444499,0.15875 0.783165,0.48683 0.349249,0.3175 0.550331,0.78317 0.211666,0.46566 0.232833,1.0795 -0.01058,0.127 -0.105833,0.22224 -0.09525,0.0847 -0.222249,0.0847 h -4.243904 l -0.126999,-0.5715 h 4.16982 l -0.137583,0.127 v -0.21166 q -0.04233,-0.49742 -0.317499,-0.84667 -0.275166,-0.34925 -0.666748,-0.52916 -0.391582,-0.17992 -0.814914,-0.17992 -0.317499,0 -0.656165,0.127 -0.328082,0.127 -0.603248,0.40217 -0.264582,0.26458 -0.433915,0.68791 -0.169333,0.41275 -0.169333,0.98425 0,0.62441 0.253999,1.13241 0.254,0.508 0.730248,0.80433 0.486832,0.29633 1.15358,0.29633 0.370415,0 0.666748,-0.10583 0.296332,-0.10583 0.518581,-0.27516 0.22225,-0.17992 0.370416,-0.37042 0.116416,-0.0952 0.232832,-0.0952 0.105833,0 0.179917,0.0847 0.08467,0.0847 0.08467,0.1905 0,0.127 -0.105833,0.22225 -0.317499,0.38099 -0.825497,0.66674 -0.507999,0.27517 -1.111247,0.27517 z"
         style="font-family:Quicksand;-inkscape-font-specification:Quicksand;fill:#ffffff"
         id="path7109" />
      <path
         d="m -16.522921,140.83969 q 0.698498,0 1.111247,0.28575 0.423332,0.27517 0.603248,0.762 0.190499,0.47625 0.190499,1.05833 v 3.11149 q 0,0.127 -0.09525,0.22225 -0.09525,0.0953 -0.22225,0.0953 -0.148166,0 -0.232832,-0.0953 -0.08467,-0.0952 -0.08467,-0.22225 v -3.07974 q 0,-0.42334 -0.137582,-0.77258 -0.137583,-0.34925 -0.455082,-0.56092 -0.306916,-0.21167 -0.814914,-0.21167 -0.455082,0 -0.867831,0.21167 -0.402165,0.21167 -0.656165,0.56092 -0.253999,0.34924 -0.253999,0.77258 v 3.07974 q 0,0.127 -0.09525,0.22225 -0.09525,0.0953 -0.22225,0.0953 -0.148166,0 -0.232832,-0.0953 -0.08467,-0.0952 -0.08467,-0.22225 v -4.74132 q 0,-0.127 0.08467,-0.22225 0.09525,-0.0953 0.232832,-0.0953 0.137583,0 0.22225,0.0953 0.09525,0.0952 0.09525,0.22225 v 0.889 l -0.243416,0.38099 q 0.02117,-0.33866 0.211666,-0.64558 0.201083,-0.3175 0.507999,-0.56091 0.306915,-0.254 0.677331,-0.39158 0.380999,-0.14817 0.761997,-0.14817 z"
         style="font-family:Quicksand;-inkscape-font-specification:Quicksand;fill:#ffffff"
         id="path7111" />
      <path
         d="m -8.5219553,140.96669 q 0.1375829,0 0.2222493,0.0952 0.09525,0.0953 0.09525,0.23283 v 4.76249 q 0,0.127 -0.09525,0.22225 -0.09525,0.0953 -0.2222493,0.0953 -0.1375829,0 -0.2328326,-0.0953 -0.084666,-0.0952 -0.084666,-0.22225 v -1.25942 l 0.1799161,-0.0847 q 0,0.29633 -0.1693328,0.60325 -0.1587495,0.30691 -0.4444986,0.57149 -0.2857491,0.26459 -0.6773311,0.43392 -0.3809997,0.15875 -0.8254977,0.15875 -0.719664,0 -1.291163,-0.37042 -0.560915,-0.37041 -0.888997,-1.01599 -0.317499,-0.64558 -0.317499,-1.44992 0,-0.82549 0.328082,-1.44991 0.328083,-0.635 0.888998,-0.99483 0.560915,-0.35983 1.269996,-0.35983 0.455081,0 0.846664,0.15875 0.4021653,0.15875 0.6984977,0.43391 0.2963324,0.27517 0.4550819,0.635 0.1693328,0.34925 0.1693328,0.73025 l -0.2222493,-0.15875 v -1.34408 q 0,-0.13758 0.084666,-0.23283 0.09525,-0.0952 0.2328326,-0.0952 z m -2.2013267,4.92123 q 0.560915,0 0.9948306,-0.28575 0.4339152,-0.29633 0.6773311,-0.80433 0.2539992,-0.51858 0.2539992,-1.15358 0,-0.62441 -0.2539992,-1.12183 -0.2434159,-0.49741 -0.6773311,-0.79374 -0.4339156,-0.29634 -0.9948306,-0.29634 -0.550331,0 -0.99483,0.28575 -0.433915,0.28575 -0.687914,0.78317 -0.243416,0.49741 -0.243416,1.14299 0,0.635 0.243416,1.15358 0.253999,0.508 0.687914,0.80433 0.433916,0.28575 0.99483,0.28575 z"
         style="font-family:Quicksand;-inkscape-font-specification:Quicksand;fill:#ffffff"
         id="path7113" />
      <path
         d="m -3.9923152,140.83969 q 0.6984978,0 1.1112464,0.28575 0.423332,0.27517 0.6032481,0.762 0.1904994,0.47625 0.1904994,1.05833 v 3.11149 q 0,0.127 -0.09525,0.22225 -0.09525,0.0953 -0.2222493,0.0953 -0.1481662,0 -0.2328326,-0.0953 -0.084666,-0.0952 -0.084666,-0.22225 v -3.07974 q 0,-0.42334 -0.1375829,-0.77258 -0.1375829,-0.34925 -0.4550818,-0.56092 -0.3069157,-0.21167 -0.8149141,-0.21167 -0.4550819,0 -0.8678306,0.21167 -0.4021654,0.21167 -0.6561646,0.56092 -0.2539992,0.34924 -0.2539992,0.77258 v 3.07974 q 0,0.127 -0.09525,0.22225 -0.09525,0.0953 -0.2222493,0.0953 -0.1481662,0 -0.2328326,-0.0953 -0.084666,-0.0952 -0.084666,-0.22225 v -4.74132 q 0,-0.127 0.084666,-0.22225 0.09525,-0.0953 0.2328326,-0.0953 0.1375829,0 0.2222493,0.0953 0.09525,0.0952 0.09525,0.22225 v 0.889 l -0.2434158,0.38099 q 0.021167,-0.33866 0.211666,-0.64558 0.2010826,-0.3175 0.5079983,-0.56091 0.3069157,-0.254 0.6773312,-0.39158 0.3809988,-0.14817 0.7619975,-0.14817 z"
         style="font-family:Quicksand;-inkscape-font-specification:Quicksand;fill:#ffffff"
         id="path7115" />
      <path
         d="m 4.00865,138.54311 q 0.1375829,0 0.2222493,0.0952 0.09525,0.0847 0.09525,0.22225 v 7.19665 q 0,0.127 -0.09525,0.22225 -0.09525,0.0953 -0.2222493,0.0953 -0.1375829,0 -0.2328326,-0.0953 -0.084666,-0.0952 -0.084666,-0.22225 v -1.25942 l 0.1799161,-0.14816 q 0,0.29633 -0.1587495,0.62441 -0.1587495,0.3175 -0.4550818,0.59267 -0.2857491,0.27516 -0.6773312,0.4445 -0.3809988,0.16933 -0.8254974,0.16933 -0.7090811,0 -1.28057925,-0.37042 -0.56091488,-0.37041 -0.88899717,-1.00541 -0.32808229,-0.635 -0.32808229,-1.44991 0,-0.80433 0.32808229,-1.43933 0.32808229,-0.64558 0.88899717,-1.00541 0.56091485,-0.37042 1.26999595,-0.37042 0.4339153,0 0.8254974,0.15875 0.3915821,0.15875 0.6879145,0.43391 0.3069156,0.27517 0.4762484,0.635 0.1799161,0.34925 0.1799161,0.73025 l -0.2222497,-0.1587 v -3.77824 q 0,-0.127 0.084666,-0.22225 0.09525,-0.0952 0.2328326,-0.0952 z m -2.2013263,7.34481 q 0.5714982,0 0.9948302,-0.28575 0.4339153,-0.29633 0.6773311,-0.79374 0.2539992,-0.508 0.2539992,-1.15358 0,-0.635 -0.2539992,-1.13242 -0.2434158,-0.50799 -0.6773311,-0.79374 -0.4339153,-0.29634 -0.9948302,-0.29634 -0.5503316,0 -0.99483016,0.29634 -0.43391529,0.28575 -0.68791448,0.79374 -0.24341589,0.49742 -0.24341589,1.13242 0,0.635 0.24341589,1.14299 0.25399919,0.508 0.68791448,0.80433 0.44449856,0.28575 0.99483016,0.28575 z"
         style="font-family:Quicksand;-inkscape-font-specification:Quicksand;fill:#ffffff"
         id="path7117" />
      <path
         d="m 8.4324609,146.48059 q -0.8149141,0 -1.4393287,-0.34925 -0.6244147,-0.34925 -0.9736636,-0.97366 -0.3492489,-0.62442 -0.3492489,-1.4605 0,-0.89958 0.3492489,-1.53458 0.3598322,-0.635 0.9207471,-0.97366 0.5714982,-0.34925 1.2064961,-0.34925 0.4656652,0 0.8995805,0.16933 0.4444986,0.15875 0.7831642,0.48683 0.3492485,0.3175 0.5503315,0.78317 0.211666,0.46566 0.232833,1.0795 -0.01058,0.127 -0.105833,0.22224 -0.09525,0.0847 -0.22225,0.0847 H 6.0406352 l -0.1269996,-0.5715 h 4.1698204 l -0.1375832,0.127 v -0.21166 q -0.042333,-0.49742 -0.317499,-0.84667 -0.2751658,-0.34925 -0.6667479,-0.52916 -0.3915821,-0.17992 -0.8149141,-0.17992 -0.317499,0 -0.6561645,0.127 -0.3280823,0.127 -0.6032481,0.40217 -0.2645825,0.26458 -0.4339153,0.68791 -0.1693328,0.41275 -0.1693328,0.98425 0,0.62441 0.2539992,1.13241 0.2539992,0.508 0.7302477,0.80433 0.4868317,0.29633 1.1535796,0.29633 0.3704155,0 0.6667479,-0.10583 0.2963324,-0.10583 0.5185817,-0.27516 0.2222493,-0.17992 0.3704155,-0.37042 0.1164163,-0.0952 0.2328323,-0.0952 0.105833,0 0.179916,0.0847 0.08467,0.0847 0.08467,0.1905 0,0.127 -0.105833,0.22225 -0.317499,0.38099 -0.8254976,0.66674 -0.5079984,0.27517 -1.1112465,0.27517 z"
         style="font-family:Quicksand;-inkscape-font-specification:Quicksand;fill:#ffffff"
         id="path7119" />
      <path
         d="m 11.78734,140.85027 q 0.08467,0 0.169332,0.0529 0.08467,0.0529 0.127,0.15875 l 1.852077,4.40265 -0.137582,0.0847 1.89441,-4.48732 q 0.08467,-0.21167 0.306916,-0.20108 0.105833,0 0.201083,0.0741 0.09525,0.0635 0.09525,0.1905 0,0.0635 -0.02117,0.10583 -0.01058,0.0318 -0.02117,0.0741 l -2.074327,4.86831 q -0.08467,0.1905 -0.285749,0.20109 -0.09525,0.0106 -0.190499,-0.0423 -0.08467,-0.0635 -0.127,-0.15875 l -2.08491,-4.86831 q -0.01058,-0.0212 -0.02117,-0.0635 -0.01058,-0.0423 -0.01058,-0.0847 0,-0.11642 0.08467,-0.21167 0.08467,-0.0952 0.243416,-0.0952 z"
         style="font-family:Quicksand;-inkscape-font-specification:Quicksand;fill:#ffffff"
         id="path7121" />
    </g>
  </g>
</svg>
